<?xml version="1.0" encoding="utf-8"?><svg viewBox="0 0 24 24" xmlns="http://www.w3.org/2000/svg" xmlns:xlink="http://www.w3.org/1999/xlink"><style>:root>svg{display:none}:root>svg:target{display:block}</style><svg viewBox="0 0 16 17" id="arrow-breadcrumbs" xmlns="http://www.w3.org/2000/svg"><path fill-rule="evenodd" clip-rule="evenodd" d="M5.53 3.362c.26-.26.682-.26.942 0L11.14 8.03c.26.26.26.682 0 .943l-4.667 4.666a.667.667 0 01-.943-.942L9.725 8.5 5.529 4.305a.667.667 0 010-.943z"/></svg><svg viewBox="0 0 16 16" id="arrow-btn-right" xmlns="http://www.w3.org/2000/svg"><path fill-rule="evenodd" clip-rule="evenodd" d="M9.862 4.528c.26-.26.682-.26.943 0l3 3c.26.26.26.683 0 .943l-3 3a.667.667 0 01-.943-.943l1.862-1.862H2.667a.667.667 0 010-1.333h9.057L9.862 5.471a.667.667 0 010-.943z"/></svg><svg viewBox="0 0 24 24" id="arrow-product-slider-left" xmlns="http://www.w3.org/2000/svg"><path fill-rule="evenodd" clip-rule="evenodd" d="M15.707 4.293a1 1 0 00-1.414 0l-7 7a1 1 0 000 1.414l7 7a1 1 0 001.414-1.414L9.414 12l6.293-6.293a1 1 0 000-1.414z"/></svg><svg viewBox="0 0 24 24" id="arrow-product-slider-right" xmlns="http://www.w3.org/2000/svg"><path fill-rule="evenodd" clip-rule="evenodd" d="M8.293 4.293a1 1 0 011.414 0l7 7a1 1 0 010 1.414l-7 7a1 1 0 01-1.414-1.414L14.586 12 8.293 5.707a1 1 0 010-1.414z"/></svg><svg viewBox="0 0 24 24" id="arrow-slider-left" xmlns="http://www.w3.org/2000/svg"><path fill-rule="evenodd" clip-rule="evenodd" d="M9.207 17.207a1 1 0 01-1.414 0l-4.5-4.5a1 1 0 010-1.414l4.5-4.5a1 1 0 011.414 1.414L6.414 11H20a1 1 0 110 2H6.414l2.793 2.793a1 1 0 010 1.414z"/></svg><svg viewBox="0 0 24 24" id="arrow-slider-right" xmlns="http://www.w3.org/2000/svg"><path fill-rule="evenodd" clip-rule="evenodd" d="M14.793 6.793a1 1 0 011.414 0l4.5 4.5a1 1 0 010 1.414l-4.5 4.5a1 1 0 01-1.414-1.414L17.586 13H4a1 1 0 110-2h13.586l-2.793-2.793a1 1 0 010-1.414z"/></svg><svg viewBox="0 0 16 14" id="card-heart" xmlns="http://www.w3.org/2000/svg"><path fill-rule="evenodd" clip-rule="evenodd" d="M8 12.271C4.932 10.525 3.222 8.79 2.395 7.284c-.846-1.542-.772-2.84-.303-3.761.966-1.894 3.71-2.5 5.383-.384L8 3.8l.523-.661c1.673-2.116 4.418-1.51 5.383.384.47.921.544 2.22-.303 3.76-.826 1.507-2.537 3.242-5.603 4.988zM8 1.737C5.645-.498 2.175.426.904 2.917.208 4.285.2 6.052 1.228 7.925c1.019 1.857 3.052 3.817 6.449 5.694l.322.179.323-.179c3.397-1.877 5.43-3.837 6.45-5.694 1.028-1.873 1.018-3.64.321-5.008C13.823.425 10.353-.498 8 1.737z"/></svg><svg viewBox="0 0 14 14" id="card-star" xmlns="http://www.w3.org/2000/svg"><path fill-rule="evenodd" clip-rule="evenodd" d="M5.933 1.284c.405-.935 1.73-.935 2.136 0L9.295 4.11l3.067.292c1.014.097 1.424 1.358.66 2.032l-2.31 2.04.67 3.007c.222.994-.85 1.774-1.728 1.256L7.001 11.17l-2.654 1.567c-.877.518-1.95-.262-1.728-1.256l.67-3.008-2.31-2.04c-.763-.673-.354-1.934.66-2.03l3.068-.293 1.226-2.827zm2.294 3.29L7 1.747 5.775 4.574a1.164 1.164 0 01-.958.696l-3.067.292 2.31 2.04c.317.28.457.712.365 1.125l-.67 3.008L6.41 10.17a1.164 1.164 0 011.183 0l2.654 1.566-.67-3.008a1.164 1.164 0 01.366-1.125l2.31-2.04-3.068-.292a1.164 1.164 0 01-.957-.696z"/></svg><svg viewBox="0 0 14 14" id="card-star-fill" xmlns="http://www.w3.org/2000/svg"><path fill-rule="evenodd" clip-rule="evenodd" d="M5.933 1.284c.405-.935 1.73-.935 2.136 0L9.295 4.11l3.067.292c1.014.097 1.424 1.358.66 2.032l-2.31 2.04.67 3.007c.222.994-.85 1.774-1.728 1.256L7.001 11.17l-2.654 1.567c-.877.518-1.95-.262-1.728-1.256l.67-3.008-2.31-2.04c-.763-.673-.354-1.934.66-2.03l3.068-.293 1.226-2.827z"/></svg><svg viewBox="0 0 22 22" id="cart" xmlns="http://www.w3.org/2000/svg"><path fill-rule="evenodd" clip-rule="evenodd" d="M2.88 2.758a6.884 6.884 0 00-.447-.008H.917a.917.917 0 010-1.833h1.542c.197 0 .392 0 .559.013.185.014.401.046.625.146.314.14.582.366.774.652.137.203.206.41.252.59.04.163.074.355.108.548l.004.026L5 4.148l11.93.353c.466.014.87.026 1.203.062.352.04.7.112 1.035.29.507.27.916.692 1.171 1.207.169.34.23.69.26 1.042.026.334.026.738.026 1.206v.068c0 .44 0 .82-.025 1.136-.026.336-.083.669-.237.995A2.75 2.75 0 0119.28 11.7c-.31.184-.636.273-.967.332-.312.054-.691.091-1.129.134l-8.923.863c-.448.043-.837.081-1.16.087-.344.006-.689-.02-1.034-.148a2.75 2.75 0 01-1.289-.982c-.214-.3-.331-.624-.417-.957-.08-.314-.147-.699-.224-1.142l-1.162-6.68a6.894 6.894 0 00-.086-.449h-.01zM5.32 5.99l.617 3.548c.085.487.14.8.2 1.035.058.224.103.305.132.346.107.15.257.264.43.327.047.018.137.04.369.036a14.93 14.93 0 001.05-.082l8.856-.857c.48-.046.788-.077 1.022-.118.222-.04.305-.077.348-.102a.918.918 0 00.36-.398c.021-.044.051-.13.069-.356.018-.236.019-.545.019-1.028 0-.512-.001-.841-.021-1.093-.02-.24-.052-.33-.075-.376a.916.916 0 00-.39-.402c-.044-.023-.134-.059-.373-.085a15.34 15.34 0 00-1.093-.054l-11.52-.34zm2.472 10.052a.917.917 0 100 1.833.917.917 0 000-1.833zm-2.75.917a2.75 2.75 0 115.5 0 2.75 2.75 0 01-5.5 0zm11.458-.917a.917.917 0 100 1.833.917.917 0 000-1.833zm-2.75.917a2.75 2.75 0 115.5 0 2.75 2.75 0 01-5.5 0z"/></svg><svg viewBox="0 0 16 17" id="comment" xmlns="http://www.w3.org/2000/svg"><path fill-rule="evenodd" clip-rule="evenodd" d="M14.615 7.546a5.166 5.166 0 01-.653 1.858c.025.142.038.286.038.43 0 .502-.146.982-.415 1.419-.135.218-.17.473-.183.642a4.25 4.25 0 00.004.607c.016.228.044.468.076.693a13.78 13.78 0 00-.812-.212 5.819 5.819 0 00-.66-.115c-.181-.019-.443-.034-.676.042a5.425 5.425 0 01-1.668.258 5.365 5.365 0 01-1.92-.343 8.824 8.824 0 01-2.712-.291C6.085 13.748 7.818 14.5 9.666 14.5a6.76 6.76 0 002.054-.315h.006c.016 0 .062 0 .147.008.134.014.306.044.504.09.395.088.839.22 1.184.33a1.024 1.024 0 001.313-1.152c-.056-.32-.115-.711-.138-1.05a2.96 2.96 0 01-.004-.413.783.783 0 01.01-.083 4.009 4.009 0 00.591-2.082c0-.849-.264-1.624-.718-2.288z"/><path fill-rule="evenodd" clip-rule="evenodd" d="M3.731 4.3c-.899.687-1.398 1.589-1.398 2.534 0 .471.123.925.353 1.347.088.161.113.327.121.44.01.122.005.248-.005.365a5.847 5.847 0 01-.134.766 14.5 14.5 0 01-.255.943c.352-.128.737-.259 1.102-.365.295-.087.593-.161.858-.203.228-.036.56-.072.845.027a6.48 6.48 0 002.115.347c1.432 0 2.703-.445 3.602-1.132.899-.688 1.398-1.59 1.398-2.535 0-.945-.5-1.847-1.398-2.535-.9-.687-2.17-1.132-3.602-1.132-1.431 0-2.703.445-3.602 1.132zm-.81-1.06c1.152-.88 2.714-1.406 4.412-1.406s3.26.526 4.412 1.406c1.152.881 1.921 2.146 1.921 3.594s-.769 2.713-1.921 3.594c-1.152.88-2.714 1.406-4.412 1.406-.895 0-1.75-.146-2.527-.412 0 .003-.064-.004-.225.022-.186.03-.423.087-.693.165a20.59 20.59 0 00-1.599.558c-.796.31-1.606-.455-1.338-1.27.142-.43.31-.976.419-1.447.055-.237.09-.436.104-.584a1.16 1.16 0 00.005-.114A4.117 4.117 0 011 6.834c0-1.448.77-2.713 1.922-3.594z"/></svg><svg viewBox="0 0 16 17" id="comments-icon" xmlns="http://www.w3.org/2000/svg"><path fill-rule="evenodd" clip-rule="evenodd" d="M14.615 7.546a5.166 5.166 0 01-.653 1.858c.025.142.038.286.038.43 0 .502-.146.982-.415 1.419-.135.218-.17.473-.183.642a4.25 4.25 0 00.004.607c.016.228.044.468.076.693a13.78 13.78 0 00-.812-.212 5.819 5.819 0 00-.66-.115c-.181-.019-.443-.034-.676.042a5.425 5.425 0 01-1.668.258 5.365 5.365 0 01-1.92-.343 8.824 8.824 0 01-2.712-.291C6.085 13.748 7.818 14.5 9.666 14.5a6.76 6.76 0 002.054-.315h.006c.016 0 .062 0 .147.008.134.014.306.044.504.09.395.088.839.22 1.184.33a1.024 1.024 0 001.313-1.152c-.056-.32-.115-.711-.138-1.05a2.96 2.96 0 01-.004-.413.783.783 0 01.01-.083 4.009 4.009 0 00.591-2.082c0-.849-.264-1.624-.718-2.288z"/><path fill-rule="evenodd" clip-rule="evenodd" d="M3.731 4.3c-.899.687-1.398 1.589-1.398 2.534 0 .471.123.925.353 1.347.088.161.113.327.121.44.01.122.005.248-.005.365a5.847 5.847 0 01-.134.766 14.5 14.5 0 01-.255.943c.352-.128.737-.259 1.102-.365.295-.087.593-.161.858-.203.228-.036.56-.072.845.027a6.48 6.48 0 002.115.347c1.432 0 2.703-.445 3.602-1.132.899-.688 1.398-1.59 1.398-2.535 0-.945-.5-1.847-1.398-2.535-.9-.687-2.17-1.132-3.602-1.132-1.431 0-2.703.445-3.602 1.132zm-.81-1.06c1.152-.88 2.714-1.406 4.412-1.406s3.26.526 4.412 1.406c1.152.881 1.921 2.146 1.921 3.594s-.769 2.713-1.921 3.594c-1.152.88-2.714 1.406-4.412 1.406-.895 0-1.75-.146-2.527-.412 0 .003-.064-.004-.225.022-.186.03-.423.087-.693.165a20.59 20.59 0 00-1.599.558c-.796.31-1.606-.455-1.338-1.27.142-.43.31-.976.419-1.447.055-.237.09-.436.104-.584a1.16 1.16 0 00.005-.114A4.117 4.117 0 011 6.834c0-1.448.77-2.713 1.922-3.594z"/></svg><svg viewBox="0 0 16 16" id="fb" xmlns="http://www.w3.org/2000/svg"><path d="M11.708.67L9.856.665c-2.08 0-3.424 1.417-3.424 3.61V5.94H4.57a.295.295 0 00-.29.299V8.65c0 .165.13.3.29.3h1.862v6.084c0 .165.13.299.291.299h2.429c.16 0 .291-.134.291-.3V8.95h2.177c.16 0 .291-.134.291-.299V6.24c0-.08-.03-.155-.084-.212a.287.287 0 00-.206-.087H9.443V4.529c0-.678.157-1.022 1.017-1.022h1.248c.16 0 .29-.135.29-.3V.968a.295.295 0 00-.29-.299z"/></svg><svg viewBox="0 0 17 16" id="filter" xmlns="http://www.w3.org/2000/svg"><path fill-rule="evenodd" clip-rule="evenodd" d="M4.833 6.333c.368 0 .666.298.666.667v7.5a.667.667 0 01-1.333 0V7c0-.369.298-.667.667-.667zm0-5.5c.368 0 .666.298.666.667v2a.667.667 0 01-1.333 0v-2c0-.369.298-.667.667-.667z"/><path fill-rule="evenodd" clip-rule="evenodd" d="M1.166 4.833a2 2 0 012-2h3.333a2 2 0 012 2v.833a2 2 0 01-2 2H3.166a2 2 0 01-2-2v-.833zm2-.667a.667.667 0 00-.667.667v.833c0 .369.299.667.667.667h3.333a.667.667 0 00.667-.667v-.833a.667.667 0 00-.667-.667H3.166zm9 7.667c.368 0 .667.299.667.667v2a.667.667 0 01-1.334 0v-2c0-.368.299-.667.667-.667zm0-11c.368 0 .667.298.667.667V9a.667.667 0 01-1.334 0V1.5c0-.369.299-.667.667-.667z"/><path fill-rule="evenodd" clip-rule="evenodd" d="M8.5 10.333a2 2 0 012-2h3.333a2 2 0 012 2v.833a2 2 0 01-2 2h-3.334a2 2 0 01-2-2v-.833zm2-.667a.667.667 0 00-.667.667v.833c0 .368.298.667.666.667h3.334a.667.667 0 00.666-.667v-.833a.667.667 0 00-.666-.667h-3.334z"/></svg><svg viewBox="0 0 16 16" id="hanger" xmlns="http://www.w3.org/2000/svg"><g clip-path="url(#oa)"><path d="M15.222 10.74l-5.76-3.601a.632.632 0 00-.335-.096h-.495v-.269a2.333 2.333 0 001.697-2.242A2.332 2.332 0 008 2.203a2.332 2.332 0 00-2.33 2.33.632.632 0 001.265 0 1.066 1.066 0 012.13 0c0 .586-.478 1.064-1.065 1.064a.632.632 0 00-.632.632v.814h-.495a.632.632 0 00-.335.096l-5.76 3.6a1.656 1.656 0 00.877 3.057h12.69a1.656 1.656 0 00.877-3.057zm-.877 1.793H1.655a.39.39 0 01-.207-.722l5.607-3.504h1.89l5.607 3.504a.39.39 0 01-.207.722z"/></g><defs><clipPath id="oa"><path d="M0 0h16v16H0z"/></clipPath></defs></svg><svg viewBox="0 0 20 20" id="heart" xmlns="http://www.w3.org/2000/svg"><path fill-rule="evenodd" clip-rule="evenodd" d="M10 16.59c-3.833-2.184-5.971-4.353-7.005-6.236-1.058-1.926-.965-3.549-.378-4.7 1.206-2.368 4.638-3.125 6.728-.48L10 6l.654-.827c2.09-2.644 5.522-1.887 6.729.48.587 1.152.68 2.775-.379 4.702-1.034 1.882-3.171 4.051-7.004 6.234zm0-13.168C7.057.627 2.72 1.782 1.131 4.897c-.871 1.709-.883 3.918.402 6.26 1.275 2.32 3.815 4.77 8.062 7.117l.403.223.403-.223c4.247-2.347 6.788-4.797 8.062-7.117 1.286-2.342 1.274-4.551.403-6.26-1.588-3.115-5.927-4.27-8.868-1.475z"/></svg><svg viewBox="0 0 16 17" id="home" xmlns="http://www.w3.org/2000/svg"><path fill-rule="evenodd" clip-rule="evenodd" d="M8.523 3.28a2 2 0 00-1.045 0c-.356.097-.702.35-1.687 1.117L4.057 5.745c-.634.493-.847.666-.998.87a2 2 0 00-.318.65c-.068.244-.074.518-.074 1.321V13c0 .513.008.622.03.693.064.213.23.38.444.445.07.021.18.028.693.028h.533A.667.667 0 005 13.531V11.5a3 3 0 016 0v1.916c0 .086.001.104.002.116.016.343.29.617.633.633l.116.001h.416c.514 0 .623-.007.694-.028a.667.667 0 00.444-.445c.022-.07.03-.18.03-.693V8.586c0-.803-.007-1.077-.075-1.321a2.002 2.002 0 00-.318-.65c-.15-.204-.363-.377-.998-.87l-1.733-1.348C9.225 3.63 8.88 3.377 8.523 3.28zM7.13 1.995a3.333 3.333 0 011.742 0c.649.175 1.218.619 2.044 1.262l.114.088 1.733 1.348.07.055c.537.417.908.705 1.181 1.075.241.326.42.693.53 1.083.124.443.124.912.123 1.592v4.587c.001.38.001.71-.086.996a2 2 0 01-1.333 1.334c-.287.087-.616.086-.997.086h-.514c-.064 0-.118 0-.168-.003a2 2 0 01-1.902-2.067V11.5a1.667 1.667 0 00-3.333 0v1.93c0 .064 0 .118-.002.168a2 2 0 01-1.9 1.9c-.05.002-.104.002-.167.002H3.75c-.38 0-.71 0-.996-.086A2 2 0 011.42 14.08c-.087-.287-.086-.616-.086-.996V8.496c0-.679 0-1.148.123-1.59.11-.391.29-.758.53-1.084.274-.37.645-.658 1.18-1.075l.072-.055 1.733-1.348.113-.088c.826-.643 1.396-1.087 2.045-1.262z"/></svg><svg viewBox="0 0 16 16" id="in" xmlns="http://www.w3.org/2000/svg"><path d="M14.654 5.254c-.031-.708-.146-1.195-.31-1.618a3.258 3.258 0 00-.77-1.182 3.281 3.281 0 00-1.18-.768c-.425-.164-.91-.28-1.618-.31-.714-.034-.94-.042-2.75-.042s-2.037.008-2.749.04c-.708.03-1.195.145-1.617.309-.448.17-.85.43-1.183.771a3.283 3.283 0 00-.768 1.18c-.164.425-.279.909-.31 1.617-.034.714-.042.94-.042 2.751 0 1.81.008 2.037.04 2.748.03.708.145 1.195.31 1.617.169.448.432.85.77 1.183.334.338.738.602 1.18.768.425.164.91.279 1.618.31.71.031.938.04 2.748.04 1.81 0 2.037-.008 2.748-.04.708-.031 1.195-.146 1.617-.31a3.41 3.41 0 001.951-1.95c.164-.425.279-.91.31-1.618.031-.711.04-.938.04-2.748 0-1.81-.004-2.037-.035-2.748zm-1.2 5.444c-.03.651-.139 1.003-.23 1.237a2.211 2.211 0 01-1.266 1.266c-.234.091-.588.2-1.237.23-.703.03-.914.038-2.693.038s-1.993-.008-2.693-.039c-.651-.028-1.003-.138-1.237-.23a2.051 2.051 0 01-.766-.497 2.073 2.073 0 01-.498-.765c-.09-.235-.2-.589-.229-1.238-.031-.703-.039-.914-.039-2.693s.008-1.992.04-2.693c.028-.651.137-1.003.228-1.237.107-.29.276-.552.5-.766a2.07 2.07 0 01.766-.498c.235-.09.589-.2 1.237-.229.704-.031.915-.039 2.694-.039 1.781 0 1.992.008 2.693.04.651.028 1.003.137 1.237.228.29.107.552.276.766.498.221.216.39.477.497.766.091.234.2.588.23 1.237.03.703.039.914.039 2.693 0 1.78-.008 1.988-.04 2.69z"/><path d="M8.025 4.577a3.426 3.426 0 10.002 6.852 3.426 3.426 0 00-.002-6.852zm0 5.647a2.222 2.222 0 11.001-4.445 2.222 2.222 0 010 4.445zm4.361-5.783a.8.8 0 11-1.6 0 .8.8 0 011.6 0z"/></svg><svg viewBox="0 0 24 24" id="instagram" xmlns="http://www.w3.org/2000/svg"><path d="M21.98 7.88c-.046-1.063-.218-1.793-.464-2.426a4.88 4.88 0 00-1.157-1.774 4.922 4.922 0 00-1.77-1.153c-.637-.246-1.363-.418-2.426-.464-1.07-.051-1.41-.063-4.126-.063-2.715 0-3.055.012-4.122.059-1.062.046-1.793.218-2.426.464A4.88 4.88 0 003.715 3.68a4.924 4.924 0 00-1.152 1.77c-.247.637-.418 1.363-.465 2.426-.051 1.07-.063 1.41-.063 4.126 0 2.715.012 3.055.059 4.122.047 1.063.219 1.793.465 2.426a4.932 4.932 0 001.156 1.774 4.92 4.92 0 001.77 1.152c.637.247 1.364.419 2.426.465 1.067.047 1.407.059 4.122.059 2.716 0 3.056-.012 4.122-.059 1.063-.046 1.793-.218 2.426-.464a5.116 5.116 0 002.927-2.927c.246-.637.418-1.364.465-2.426.047-1.067.058-1.407.058-4.122s-.004-3.055-.05-4.122zm-1.8 8.166c-.044.977-.208 1.504-.345 1.855a3.317 3.317 0 01-1.898 1.9c-.352.136-.883.3-1.856.343-1.055.047-1.371.059-4.04.059-2.668 0-2.989-.012-4.04-.059-.977-.043-1.504-.207-1.856-.344a3.077 3.077 0 01-1.148-.746 3.11 3.11 0 01-.747-1.148c-.136-.352-.3-.883-.343-1.856-.047-1.055-.059-1.372-.059-4.04 0-2.669.012-2.99.059-4.04.043-.977.207-1.504.343-1.856A3.04 3.04 0 015 4.965a3.105 3.105 0 011.15-.746c.35-.137.882-.3 1.855-.344 1.055-.046 1.372-.058 4.04-.058 2.672 0 2.989.012 4.04.058.977.043 1.504.207 1.856.344.433.16.828.414 1.148.746.332.325.586.715.747 1.15.136.35.3.882.343 1.855.047 1.055.059 1.371.059 4.04 0 2.668-.012 2.98-.059 4.036z"/><path d="M12.037 6.864A5.139 5.139 0 006.9 12.002a5.139 5.139 0 105.138-5.138zm0 8.47a3.333 3.333 0 11.001-6.666 3.333 3.333 0 010 6.667zm6.541-8.673a1.2 1.2 0 11-2.4 0 1.2 1.2 0 012.4 0z"/></svg><svg viewBox="0 0 16 16" id="pt" xmlns="http://www.w3.org/2000/svg"><path d="M8.2.666C4.153.666 2 3.243 2 6.051c0 1.303.733 2.927 1.907 3.443.334.15.29-.033.578-1.127a.258.258 0 00-.063-.255c-1.677-1.927-.327-5.888 3.54-5.888 5.595 0 4.55 7.689.973 7.689-.922 0-1.609-.719-1.391-1.608.263-1.06.779-2.198.779-2.96 0-1.925-2.887-1.64-2.887.91 0 .787.281 1.32.281 1.32s-.929 3.724-1.1 4.42c-.293 1.179.039 3.086.067 3.25.018.09.12.12.178.045.091-.12 1.214-1.71 1.528-2.859l.584-2.117c.31.555 1.202 1.02 2.153 1.02C11.956 11.333 14 8.863 14 5.8 13.99 2.864 11.459.666 8.2.666z"/></svg><svg viewBox="0 0 16 16" id="search" xmlns="http://www.w3.org/2000/svg"><g clip-path="url(#ua)"><path fill-rule="evenodd" clip-rule="evenodd" d="M7.25 2.166a5.083 5.083 0 100 10.167 5.083 5.083 0 000-10.167zM.835 7.25a6.417 6.417 0 1111.399 4.044l2.739 2.734a.667.667 0 11-.942.944l-2.74-2.736A6.417 6.417 0 01.834 7.25z"/></g><defs><clipPath id="ua"><path d="M0 0h16v16H0z"/></clipPath></defs></svg><svg viewBox="0 0 16 16" id="tw" xmlns="http://www.w3.org/2000/svg"><path d="M15 3.849a5.935 5.935 0 01-1.65.433 2.786 2.786 0 001.263-1.52 5.948 5.948 0 01-1.825.667 2.924 2.924 0 00-2.096-.868C9.106 2.56 7.82 3.79 7.82 5.31c0 .215.026.425.075.626-2.387-.114-4.503-1.21-5.92-2.873a2.641 2.641 0 00-.388 1.382c0 .954.507 1.796 1.277 2.289a2.97 2.97 0 01-1.3-.345v.034c0 1.332.99 2.444 2.303 2.697a3.03 3.03 0 01-.757.096c-.185 0-.365-.018-.54-.051.365 1.093 1.425 1.888 2.682 1.91a5.926 5.926 0 01-3.567 1.175A6.37 6.37 0 011 12.212a8.382 8.382 0 004.402 1.237c5.283 0 8.171-4.19 8.171-7.823l-.01-.356A5.608 5.608 0 0015 3.849z"/></svg><svg viewBox="0 0 16 16" id="yt" xmlns="http://www.w3.org/2000/svg"><path fill-rule="evenodd" clip-rule="evenodd" d="M14.26 2.743a2.004 2.004 0 011.41 1.41c.343 1.252.33 3.862.33 3.862s0 2.596-.33 3.848a2.005 2.005 0 01-1.41 1.41c-1.252.33-6.26.33-6.26.33s-4.995 0-6.26-.343a2.005 2.005 0 01-1.41-1.41C0 10.611 0 8.002 0 8.002s0-2.597.33-3.849A2.046 2.046 0 011.74 2.73C2.992 2.4 8 2.4 8 2.4s5.008 0 6.26.343zm-3.69 5.259L6.405 10.4V5.603l4.165 2.399z"/></svg></svg>